<svg width="30" height="30" viewBox="0 0 30 30" fill="none" xmlns="http://www.w3.org/2000/svg">
<path d="M3 3.98578C3 3.72434 3.10386 3.4736 3.28873 3.28873C3.4736 3.10386 3.72434 3 3.98578 3H4.71921C5.96786 3 6.71706 3.83989 7.14423 4.62063C7.42945 5.14112 7.63581 5.74442 7.79748 6.2912C7.84121 6.28775 7.88505 6.28599 7.92892 6.28594H24.356C25.4469 6.28594 26.2356 7.32956 25.9359 8.37974L23.5332 16.8036C23.3178 17.5592 22.862 18.224 22.235 18.6973C21.6079 19.1707 20.8437 19.4269 20.058 19.4271H12.2401C11.4482 19.4271 10.6781 19.1671 10.0484 18.6869C9.41863 18.2068 8.96399 17.5331 8.75434 16.7694L7.75542 13.126L6.0993 7.54248L6.09799 7.53197C5.89294 6.78672 5.70105 6.08878 5.41451 5.56829C5.13981 5.06226 4.91899 4.97156 4.72052 4.97156H3.98578C3.72434 4.97156 3.4736 4.86771 3.28873 4.68284C3.10386 4.49797 3 4.24723 3 3.98578ZM9.66784 12.6475L10.6549 16.2476C10.8521 16.96 11.5001 17.4555 12.2401 17.4555H20.058C20.4151 17.4555 20.7625 17.3391 21.0476 17.124C21.3327 16.9089 21.5399 16.6068 21.6379 16.2634L23.9209 8.25751H8.36923L9.64944 12.5779L9.66784 12.6475ZM14.1722 23.3728C14.1722 24.07 13.8953 24.7387 13.4023 25.2316C12.9093 25.7246 12.2406 26.0016 11.5435 26.0016C10.8463 26.0016 10.1776 25.7246 9.68464 25.2316C9.19166 24.7387 8.9147 24.07 8.9147 23.3728C8.9147 22.6756 9.19166 22.007 9.68464 21.514C10.1776 21.021 10.8463 20.7441 11.5435 20.7441C12.2406 20.7441 12.9093 21.021 13.4023 21.514C13.8953 22.007 14.1722 22.6756 14.1722 23.3728ZM12.2006 23.3728C12.2006 23.1985 12.1314 23.0314 12.0082 22.9081C11.8849 22.7849 11.7178 22.7156 11.5435 22.7156C11.3692 22.7156 11.202 22.7849 11.0788 22.9081C10.9555 23.0314 10.8863 23.1985 10.8863 23.3728C10.8863 23.5471 10.9555 23.7143 11.0788 23.8375C11.202 23.9608 11.3692 24.03 11.5435 24.03C11.7178 24.03 11.8849 23.9608 12.0082 23.8375C12.1314 23.7143 12.2006 23.5471 12.2006 23.3728ZM23.3729 23.3728C23.3729 24.07 23.0959 24.7387 22.6029 25.2316C22.1099 25.7246 21.4413 26.0016 20.7441 26.0016C20.0469 26.0016 19.3783 25.7246 18.8853 25.2316C18.3923 24.7387 18.1153 24.07 18.1153 23.3728C18.1153 22.6756 18.3923 22.007 18.8853 21.514C19.3783 21.021 20.0469 20.7441 20.7441 20.7441C21.4413 20.7441 22.1099 21.021 22.6029 21.514C23.0959 22.007 23.3729 22.6756 23.3729 23.3728ZM21.4013 23.3728C21.4013 23.1985 21.332 23.0314 21.2088 22.9081C21.0856 22.7849 20.9184 22.7156 20.7441 22.7156C20.5698 22.7156 20.4026 22.7849 20.2794 22.9081C20.1561 23.0314 20.0869 23.1985 20.0869 23.3728C20.0869 23.5471 20.1561 23.7143 20.2794 23.8375C20.4026 23.9608 20.5698 24.03 20.7441 24.03C20.9184 24.03 21.0856 23.9608 21.2088 23.8375C21.332 23.7143 21.4013 23.5471 21.4013 23.3728Z" fill="black"/>
</svg>
