<svg width="30" height="30" viewBox="0 0 30 30" fill="none" xmlns="http://www.w3.org/2000/svg">
<path d="M12.6562 2.8125C7.21969 2.8125 2.8125 7.21969 2.8125 12.6562C2.8125 18.0928 7.21969 22.5 12.6562 22.5C15.0375 22.5 17.22 21.6553 18.9225 20.2481L25.5872 26.9137C25.7631 27.0895 26.0016 27.1882 26.2503 27.1882C26.499 27.1881 26.7375 27.0892 26.9133 26.9133C27.0891 26.7374 27.1878 26.4988 27.1877 26.2501C27.1876 26.0014 27.0887 25.763 26.9128 25.5872L20.2481 18.9216C21.7066 17.1598 22.5032 14.9434 22.5 12.6562C22.5 7.21969 18.0928 2.8125 12.6562 2.8125ZM4.6875 12.6562C4.6875 10.5428 5.52706 8.51592 7.02149 7.02149C8.51592 5.52706 10.5428 4.6875 12.6562 4.6875C14.7697 4.6875 16.7966 5.52706 18.291 7.02149C19.7854 8.51592 20.625 10.5428 20.625 12.6562C20.625 14.7697 19.7854 16.7966 18.291 18.291C16.7966 19.7854 14.7697 20.625 12.6562 20.625C10.5428 20.625 8.51592 19.7854 7.02149 18.291C5.52706 16.7966 4.6875 14.7697 4.6875 12.6562Z" fill="black"/>
</svg>
