<?xml version="1.0" encoding="UTF-8"?><svg id="Capa_2" xmlns="http://www.w3.org/2000/svg" viewBox="0 0 207.26 89.69"><defs><style>.cls-1{stroke-linecap:round;}.cls-1,.cls-2,.cls-3,.cls-4{fill:none;stroke:#231f20;stroke-miterlimit:22.93;}.cls-1,.cls-4{stroke-width:1.5px;}.cls-2{stroke-width:.22px;}.cls-5{fill-rule:evenodd;}.cls-5,.cls-6{fill:#231f20;}.cls-3{stroke-width:.57px;}</style></defs><g id="Logo_Expandido_Inline"><path class="cls-4" d="M48.88,27.03c9.67,.64,15.38-1.09,20.78-9.66"/><path class="cls-1" d="M24.21,78.18c3.78,2.07,4.55,2.53,8.74,3.24,3.75,.53,9.48-.17,12.89-1.19,4.91-1.64,8.12-3.98,11.89-7.87,3.05-3.15,5.33-8.94,5.68-13.32,.31-3.79-.44-6.2-1.6-9.18-.75-1.8-3.07-5.18-3.23-8.03-.13-2.42,4.02-6.32,5.75-8.4"/><path class="cls-5" d="M32.16,69.75c-.62-2.58,.9-6.86,1.29-8.23,1.8-6.26,5.68-10.35,8.27-12.34,2.12-1.63,4.2-2.99,7.63-3.15,2.06-.35,8.8,1.3,8.6,3.1-.65,1.39-.67,2.27-1.98,2.37-2.53,.19-8.82,1.96-9.44,5.3-.87,2.48-.54,4.36-2.16,6.56-1.4,1.89-6,3.48-7.92,4.69-1.92,1.21-3.15,4.33-4.29,1.7"/><path class="cls-5" d="M34.04,73.31c-.38-2.2,4.03-3.04,6.08-3.93,2.69-1.16,4.14-2.44,6.25-4.35,1.23-1.11,1.97-4.94,2.38-6.69,.54-2.31,3.91-3.77,6.17-4.44,1.47-.44,4.12-1.39,4.38,.13,.56,3.34-.81,8.05-2.25,11.12-1.52,3.25-3.48,6.88-6.62,8.93-5.74,3.57-15.53,4.24-16.39-.77"/><path class="cls-1" d="M27,83.81c1.19-1.11,2.54-2.16,3.39-2.88"/><path class="cls-1" d="M30.28,27.03c4.06,.93,6.89,1.46,10.53,2.63,.54,.18-1.72,1.92-1.13,2.13,1.82,.64,7.66,.02,8.57,1.72,.59,1.1,.13,1.62-.6,2.65-3.64,5.16-6.83,9.15-10.63,14.33-5.84,7.95-10.87,17.96-16.55,26.03l-1.23,1.93"/><path class="cls-4" d="M45.92,24.17c3.66,1.18,4.38,7.74,2.42,10.32"/><path class="cls-5" d="M90.66,32.93c.52,1.27-.29,2.75,.21,4.32,.51,1.58-1.87,2.36-2.82,1.99-1.02-.39-1.35-1.66-.7-3.3,.65-1.64,2.33-2.74,3.3-3.01"/><path class="cls-5" d="M77.53,36.42c.3,1.33,.74,2.69,2.21,3.66,1.47,.97,3.59,1.28,4.16,.44,1.76-1.26-1.51-2.55-2.13-3.34-.38-.48-1.13-1.79-4.24-.76"/><path class="cls-5" d="M88.53,25.98c-.03,2.03,.28,4.06,.1,4.94-.16,.77-1.36,3.06-2.35,3.23-.56-.94-1.33-3.64-.71-5.25,.61-1.61,1.97-2.74,2.97-2.92"/><path class="cls-5" d="M76.74,29.92c.48,1.28,.43,3.52,2.02,4.29,1.59,.77,4.73,2.05,5.18,1.14,.49-.98-1.46-3.79-3.52-4.03-2.06-.24-2.78-1.86-3.68-1.41"/><path class="cls-5" d="M64.4,11.1c.68,1.03,1.41,2.32,2.23,3.16,.81,.84,3.94,.91,4.18,.06-.26-.87-.31-2.76-2.54-3.02-2.23-.26-3.16-.74-3.87-.19"/><path class="cls-5" d="M66.87,3c1.1,1.21,1.56,1.56,1.88,3.2,.32,1.64,1.45,2.44-.34,2.93-1.24,.34-2.07-.67-2.25-2.22-.18-1.55-.01-3.95,.71-3.9"/><path class="cls-5" d="M57.7,9.17c.9,.76,2.76,1.71,4.14,1.29,1.38-.42,2.23-.53,2.71-1.26-.55-.77-2.64-.73-4.12-1.47-1.48-.74-2.25,.72-2.74,1.44"/><path class="cls-5" d="M60.53,.63c1.09,.49,.83,1.61,2.47,2.66,1.63,1.05,.99,3.07,.15,3.66-.41,.28-2.48-1.12-3.05-2.55-.58-1.43,0-3.01,.44-3.77"/><path class="cls-5" d="M52.7,2.73c1.12,1.07,1.38,2.45,2.26,3.06,1.62,.69,3.47,.83,4.32-.16,.03-.68-1.36-.85-2.54-2.24-.74-.87-2.5-1.61-4.04-.67"/><path class="cls-5" d="M72.8,7.09c1.42,3.26,2.2,2.32,2.2,3.47-.01,1.88,.23,3.67-.73,3.9-.95-.06-2.73-1.27-2.57-2.95,.13-1.32,0-3.81,1.11-4.41"/><path class="cls-5" d="M64.74,79.98c-6.25,3.85-16.7,8.24-29.77,5.1-5.47-1.31-10.79-4.16-18.35-10.76-2.4-2.69-2.95-3.36-6.54-6.26-2.06-1.66-5.82-5.13-7.27-10.75-1.15-4.47-.2-4.06-1.63-6.02-.75-1.32-.5,1.98-.19,3.27,6.19,25.88,32.55,39.26,56.38,31.76,18.97-5.97,31.14-23.51,30.66-42.98-.19-2.73-2.02-6.51-2.58-7.16-2.1,1.2,.86,4.43-.16,10.56-.6,4.97-1.25,9.66-4.4,15.49-1.09,2.02-1.62,3.68-5.77,8.8-1.74,2.15-7.86,7.39-10.39,8.95Z"/><path class="cls-2" d="M64.74,79.98c-6.25,3.85-16.7,8.24-29.77,5.1-5.47-1.31-10.79-4.16-18.35-10.76-2.4-2.69-2.95-3.36-6.54-6.26-2.06-1.66-5.82-5.13-7.27-10.75-1.15-4.47-.2-4.06-1.63-6.02-.75-1.32-.5,1.98-.19,3.27,6.19,25.88,32.55,39.26,56.38,31.76,18.97-5.97,31.14-23.51,30.66-42.98-.19-2.73-2.02-6.51-2.58-7.16-2.1,1.2,.86,4.43-.16,10.56-.6,4.97-1.25,9.66-4.4,15.49-1.09,2.02-1.62,3.68-5.77,8.8-1.74,2.15-7.86,7.39-10.39,8.95Z"/><path class="cls-5" d="M83.07,18.82c1.18,.13,2.13,.84,3.06,3.84,.56,1.81,0,2-.48,2.79-.28,.45-.5,1.09-1.14,1.74-.77,.78-2.09-1.56-2.28-3.32-.1-.92,.65-1.67,.85-2.55,.18-.8-.21-1.75,0-2.5"/><path class="cls-5" d="M75.78,24.5c.48,1.28,.5,3.06,1.45,3.84,.95,.78,4.03,1.53,4.73,.81,.58-.6-1.49-3.42-3.16-3.62-1.3-.16-1.89-1.63-3.02-1.03"/><path class="cls-5" d="M45.74,79.69c1.69-.64,3.45-1.62,5.22-1.76-1.02,1.77,3.01,3.31,4.86,4.44,1.3,.78,1.87,2.36,.83,2.84-.28,.13-2.04,.93-2.5,.38-.6-.72-2.14-1.94-3.19-1.46-.5,.22-1.11,.7-1.4,1.15-.63,.97,2.38,1.79,2.27,2.32-.74,1.1-4.31,2.97-5.73,1.65-1.06-.98-1.07-5.07-1.16-5.61-.18-1.17-.32-3.52,.8-3.94"/><path class="cls-5" d="M5.05,53.45c.54,1.68,.5,2.53,.42,4.01-.16,1.88,2.04,5.48,.56,4.18-1.48-1.3-1.82-3.36-1.82-4.87s.3-5,.84-3.32Z"/><path class="cls-3" d="M5.05,53.45c.54,1.68,.5,2.53,.42,4.01-.16,1.88,2.04,5.48,.56,4.18-1.48-1.3-1.82-3.36-1.82-4.87s.3-5,.84-3.32Z"/><path class="cls-5" d="M3.99,46.82c.19,2.44,.87,1.45,.68,2.72-.16,1.1-.41,1.14-1.14,2.29-.73,1.15-1.12-1.88-1.2-3.27-.08-1.38,1.32-6.02,1.66-1.74Z"/><path class="cls-3" d="M3.99,46.82c.19,2.44,.87,1.45,.68,2.72-.16,1.1-.41,1.14-1.14,2.29-.73,1.15-1.12-1.88-1.2-3.27-.08-1.38,1.32-6.02,1.66-1.74Z"/><path class="cls-5" d="M2.68,35.29c.16,1.76-.68,6.25-1.08,7.67-.57,1.8,.06,7.21-.71,5.74-.77-1.47-.7-5.21-.37-6.69,.33-1.48,2-8.48,2.16-6.72Z"/><path class="cls-3" d="M2.68,35.29c.16,1.76-.68,6.25-1.08,7.67-.57,1.8,.06,7.21-.71,5.74-.77-1.47-.7-5.21-.37-6.69,.33-1.48,2-8.48,2.16-6.72Z"/><path class="cls-5" d="M37.62,81.04c2.44,.42,7.58-.87,5.51,.34-1.02,1.77,1.55,.85,3.41,1.97,1.3,.78,.72,2.24-.31,2.73-.84,.39-2.02-1.05-3.61-.33-.5,.23-.86,.14-1.16,.59-.63,.97,2.59,1.45,2.47,1.99-.74,1.1-3.46,1.65-4.88,.33-1.06-.98-2.13-3.42-2.21-3.96-.18-1.17-.4-3.86,.77-3.66"/><path class="cls-1" d="M131.08,9.55l-22.02,34.64,1.59,3.57-1.9,6.58,4.87-1.02,2.38,.2c.7-.1,.25-.32,1.39-.4l7.32-14.65c.51-1.24,9.87-17.58,11.32-20.1,.45-.78,1.45-2.16,2.35-3.34s.64-2.88-.59-3.73l-3.48-2.41c-1.07-.74-2.53-.44-3.23,.65Z"/><path class="cls-6" d="M184.56,46.09h3.51c2.28,0,3.39-.34,3.33-1.01-.07-.76-.8-1.14-2.2-1.14-1.96,0-3.5,.72-4.64,2.15m-1.53,3.99c0,1.11,1.2,1.66,3.61,1.66h9.49c2.69,0,4.04,.65,4.04,1.94,0,.88-.48,1.58-1.43,2.07-.95,.49-2.28,.74-3.98,.74h-9.04c-3.38,0-5.95-.57-7.71-1.7-1.76-1.14-2.64-2.8-2.64-4.99,0-2.81,1.39-5.24,4.17-7.28,2.78-2.04,6.1-3.06,9.93-3.06,2.79,0,5.04,.5,6.73,1.49,1.69,1,2.54,2.32,2.54,3.95,0,1.96-1.17,3.42-3.51,4.37-1.29,.54-3.23,.81-5.79,.81h-6.39Zm-12.02-10.36h4.41c2.72,0,4.07,.65,4.07,1.94,0,.88-.48,1.58-1.43,2.07-.95,.49-2.28,.74-3.98,.74h-5.88l-14.37,24.25c-1.19,2-2.86,3-4.99,3-.94,0-1.72-.19-2.37-.59-.64-.4-1.02-1.17-1.02-1.76,0-.42,1.65-3.08,2.71-4.86l11.91-20.05h-2.18c-2.72,0-4.07-.63-4.07-1.9,0-.9,.48-1.6,1.43-2.1,.95-.5,2.28-.75,3.99-.75h3.63l4.07-6.85c1.36-2.28,2.99-3.89,4.9-4.85,1.91-.96,4.46-1.43,7.66-1.43h3.64c2.71,0,4.06,.64,4.06,1.93,0,.92-.48,1.64-1.43,2.14-.95,.52-2.28,.77-3.97,.77h-.96c-1.79,0-3.2,.25-4.23,.75-1.04,.49-1.9,1.33-2.61,2.51l-3,5.04Zm-22.29-6.99c1.24,0,2.29,.3,3.15,.89,.86,.59,1.3,1.31,1.3,2.16s-.44,1.57-1.3,2.16c-.86,.59-1.91,.89-3.15,.89s-2.29-.3-3.15-.89c-.86-.59-1.3-1.32-1.3-2.16s.44-1.57,1.3-2.16c.86-.59,1.92-.89,3.15-.89Zm-4.21,19.01h3.61c2.67,0,4,.65,4,1.94,0,.88-.47,1.58-1.42,2.07-.94,.49-2.26,.74-3.96,.74h-5.08c-1.88,0-3.35-.26-4.42-.79-1.08-.52-1.61-1.24-1.61-2.14,0-.49,.23-1.1,.68-1.84l5.28-8.9,.35-.62c.98-1.65,2.55-2.47,4.74-2.47,.89,0,1.67,.2,2.32,.61,.64,.41,.97,.9,.97,1.47,0,.47-.28,1.19-.86,2.15l-4.59,7.78Z"/><path class="cls-5" d="M107.33,47.75l16.41,1.43c2.02,.18,5.71-.38,7.26,.78,3.38,2.53,6.88,1.99,6.35,3.01-1.82,3.49-13.63,3.12-19.75,2.74-6.29-.38-13.59,2.59-12.47-.98,.73-2.33-.49-7.21,2.19-6.98Z"/><path class="cls-3" d="M107.33,47.75l16.41,1.43c2.02,.18,5.71-.38,7.26,.78,3.38,2.53,6.88,1.99,6.35,3.01-1.82,3.49-13.63,3.12-19.75,2.74-6.29-.38-13.59,2.59-12.47-.98,.73-2.33-.49-7.21,2.19-6.98Z"/><path class="cls-5" d="M132.97,8.58l3.28,2.92c1.28,1.14-7.93,15.78-8.75,17.29l-9.94,18.24c-.82,1.51-4.86,3.79-5.68,2.28l-2.36-4.39c-.81-1.51,7.95-14.29,8.86-15.75l5.42-8.7c.91-1.46,7.89-13.03,9.17-11.89Z"/><path class="cls-3" d="M132.97,8.58l3.28,2.92c1.28,1.14-7.93,15.78-8.75,17.29l-9.94,18.24c-.82,1.51-4.86,3.79-5.68,2.28l-2.36-4.39c-.81-1.51,7.95-14.29,8.86-15.75l5.42-8.7c.91-1.46,7.89-13.03,9.17-11.89Z"/><path class="cls-6" d="M192.89,70.9h3.23c2.1,0,3.12-.33,3.06-.99-.06-.75-.73-1.13-2.03-1.13-1.81,0-3.22,.71-4.27,2.12m-1.41,3.93c0,1.09,1.1,1.63,3.32,1.63h8.74c2.48,0,3.72,.64,3.72,1.91,0,.87-.44,1.55-1.32,2.04-.87,.49-2.1,.73-3.67,.73h-8.32c-3.11,0-5.47-.56-7.1-1.68-1.62-1.12-2.43-2.76-2.43-4.92,0-2.77,1.28-5.16,3.84-7.17,2.56-2.01,5.61-3.02,9.14-3.02,2.57,0,4.64,.49,6.2,1.47,1.56,.99,2.34,2.28,2.34,3.89,0,1.94-1.07,3.37-3.23,4.31-1.18,.53-2.97,.8-5.33,.8h-5.88Zm-15.39,1.63h3.49c2.48,0,3.72,.64,3.72,1.91,0,.87-.43,1.55-1.31,2.04-.87,.49-2.09,.73-3.65,.73h-5.96c-1.29,0-2.33-.25-3.13-.75-.79-.51-1.2-1.16-1.2-1.99,0-.56,.26-1.32,.78-2.28l2.72-4.93c.15-.29,.23-.55,.23-.79,0-.93-.64-1.4-1.94-1.4-.99,0-1.99,.33-2.96,.99-.97,.66-1.76,1.53-2.35,2.63l-3.28,5.95c-1.07,1.92-2.64,2.89-4.7,2.89-.8,0-1.49-.19-2.05-.58-.57-.39-.85-.85-.85-1.38,0-.42,.15-.91,.44-1.46l.32-.59,3.31-6.01c.29-.53,.44-.95,.44-1.25,0-.32-.2-.6-.59-.83-.39-.24-.85-.35-1.38-.35-2.12,0-3.81,1.12-5.04,3.36l-3.44,6.18c-1.07,1.94-2.64,2.91-4.68,2.91-.8,0-1.5-.19-2.08-.57-.57-.38-.86-.85-.86-1.39,0-.43,.15-.92,.44-1.47l.32-.58,5.87-10.58c.82-1.48,2.05-2.23,3.7-2.23s2.76,.59,3.18,1.77c1.33-.82,2.41-1.37,3.24-1.63,.83-.27,1.86-.41,3.07-.41,2.63,0,4.6,.83,5.91,2.5,2.2-1.66,4.67-2.5,7.41-2.5,1.88,0,3.44,.4,4.71,1.2,1.27,.8,1.9,1.77,1.9,2.94,0,.73-.21,1.49-.64,2.26l-3.13,5.7Zm-39.67-18.73c1.14,0,2.11,.29,2.9,.88,.79,.58,1.19,1.29,1.19,2.13s-.4,1.55-1.19,2.13c-.79,.58-1.76,.88-2.9,.88s-2.11-.29-2.9-.88c-.79-.58-1.2-1.3-1.2-2.13s.4-1.55,1.2-2.13c.79-.58,1.77-.88,2.9-.88Zm-3.88,18.73h3.32c2.46,0,3.69,.64,3.69,1.91,0,.87-.43,1.55-1.31,2.04-.86,.49-2.08,.73-3.65,.73h-4.68c-1.73,0-3.08-.26-4.07-.78-.99-.52-1.49-1.22-1.49-2.11,0-.48,.21-1.08,.62-1.81l4.86-8.77,.32-.61c.9-1.63,2.35-2.44,4.36-2.44,.82,0,1.54,.2,2.14,.6,.59,.41,.89,.89,.89,1.45,0,.46-.26,1.17-.79,2.12l-4.23,7.66Zm-7.46-21.32l-9.79,21.02c-2.15,4.62-2.72,5.61-3.64,6.44-1.61,1.44-2.37,1.6-3.76,1.68-3.44,.2-8.71,.26-11.83-.53-5.22-1.32-4.19-7.93-.88-7.61,2,.19,1.82,.4,3.62,.91,2.42,.7,4.93,2.01,6.7,.52,1.77-1.49,1.89-1.84,3.13-4.5l8.59-18.4-10.14,1.2c-.34,.04-.4,.34-.4-1.07,0-.95-.99-2.42-.03-2.96,.96-.54,.35-.16,2.05-.16h20.09l2.06,.35c.81,.33,1.22,.92,1.22,1.77,0,.95,1.5,.07,.54,.61-.95,.54-3.31,.44-5.01,.56l-2.53,.18Z"/><path class="cls-1" d="M127.27,55c-1.96,4.42-3.21,6.53-5.64,11.87-2.43,5.35-3.45,7.82-5.68,12.46-.91,1.89-1.59,3.93-9.22,4"/><path class="cls-1" d="M143.67,80.66c1.22,.18,3.5,.12,4.69-.49,2.26-1.17,3.59-4.2,5.63-7.71,3.73-6.42,7.29-12.74,10.3-17.79,3.64-6.1,7.9-14.95,12.54-20.44,2.26-2.68,6.88,.81,8.33-2.67l.91-2.17"/><path class="cls-1" d="M47.97,22.6c-1.67,1.37-3.37,2.65-5.28,3.22-4.04,1.2-8.39,.8-12.59,1.21m44.75-10.55c-.97,1.18-2.19,3.02-3.19,4.17-2.09,2.39-4.49,4.22-5.64,7.18l-2.52,6.47c2.05-1.98,2.43-2.62,4.28-4.32,5.8-5.34,12.07-10.58,18.14-15.61,.73-.61,2.83-2.78,2.65-3.72-.4-2.1-7.71,3.01-12.13,5.17-4.56,2.23-8.79,1.43-13.76,1.49-2.97,.03-5.91-.04-8.48,.97-2.24,.88-4.21,2.67-6.22,4.33"/><path class="cls-5" d="M75.63,20.66c7.86-4.63,14.11-11.59,12.34-9.17-.76,1.03-4.09,4.26-8.54,8.26-2.56,2.31-5.23,4.08-7.53,6.42-5.59,5.66-4.79,5.21-7.15,4.79-2.37-.42,6.34-7.62,10.88-10.3"/><path class="cls-3" d="M55.04,18.24c5-1.34,12.99-1.63,13.52,.37,.31,1.14-.84,2.09-2.83,3.76-1.5,1.26-3.5,3.33-5.65,3.91-3.36,.9-7.56,1.71-9.73,.8-1.06-.44-2.05-.7-2.23-1.35-.06-.24-.52-1.09-.51-1.37,.1-2.16,3.01-4.93,7.42-6.11Z"/><path class="cls-5" d="M68.56,18.61c-.54-2-8.52-1.72-13.52-.37-4.41,1.19-7.32,3.95-7.42,6.11-.01,.29,.44,1.14,.51,1.37,.18,.65,1.17,.91,2.23,1.35,2.17,.9,6.37,.1,9.73-.8,2.15-.58,4.15-2.65,5.65-3.91,1.99-1.67,3.14-2.61,2.83-3.76Zm-8.11,6.51c-.93,.25-3.18,.09-3.18-.99s1.49-2.9,2.56-2.9,2.78,.33,2.78,1.4c-.17,1.11-1.05,2.12-2.16,2.48Z"/><path class="cls-3" d="M59.83,21.24c1.07,0,2.78,.33,2.78,1.4-.17,1.11-1.05,2.12-2.16,2.48-.93,.25-3.18,.09-3.18-.99s1.49-2.9,2.56-2.9Z"/><g><path class="cls-6" d="M18.63,16.64c-.46,.43-.94,.71-1.46,.83-.52,.12-1.03,.08-1.54-.11-.51-.19-.99-.51-1.43-.98-.44-.46-.75-.96-.91-1.48s-.18-1.04-.04-1.55c.14-.51,.43-.99,.89-1.42,.55-.53,1.13-.82,1.75-.88,.61-.06,1.2,.12,1.76,.53l-.96,.91c-.29-.19-.59-.27-.9-.23-.31,.04-.61,.19-.9,.47-.27,.26-.44,.54-.51,.85-.07,.31-.05,.63,.07,.97,.12,.33,.33,.66,.64,.99,.31,.32,.62,.55,.95,.68,.33,.14,.65,.17,.96,.12s.6-.22,.87-.47c.29-.28,.46-.57,.52-.86,.06-.3,0-.59-.16-.87l.96-.92c.36,.56,.5,1.14,.41,1.74-.09,.61-.42,1.17-.97,1.7Z"/><path class="cls-6" d="M23.85,12.5c-.51,.34-1.04,.52-1.58,.54-.54,.03-1.06-.09-1.55-.36s-.91-.66-1.26-1.2c-.35-.54-.55-1.08-.6-1.63-.05-.55,.05-1.07,.29-1.56,.24-.49,.62-.9,1.13-1.23,.52-.34,1.05-.52,1.59-.55,.54-.03,1.06,.09,1.54,.36,.49,.26,.91,.67,1.26,1.2,.35,.54,.55,1.08,.6,1.63,.05,.55-.04,1.07-.28,1.56-.24,.49-.62,.9-1.14,1.24Zm-.6-.91c.32-.21,.55-.47,.69-.77,.14-.3,.18-.63,.13-.99-.05-.36-.19-.72-.44-1.09-.25-.38-.52-.66-.83-.84s-.62-.27-.95-.26c-.33,0-.65,.12-.97,.33-.32,.21-.54,.46-.68,.76s-.19,.63-.14,.98c.05,.35,.19,.72,.44,1.09,.24,.37,.52,.65,.83,.83,.31,.19,.63,.27,.96,.27,.33,0,.66-.11,.97-.32Z"/><path class="cls-6" d="M27.38,10.28l-2.56-5.76,3.75-1.67,.4,.9-2.64,1.17,.68,1.54,2.11-.94,.39,.87-2.11,.94,1.09,2.45-1.11,.49Z"/><path class="cls-6" d="M32.02,8.31l-1.76-6.05,3.94-1.15,.27,.94-2.77,.81,.47,1.62,2.22-.65,.27,.92-2.22,.65,.75,2.58-1.17,.34Z"/><path class="cls-6" d="M36.9,6.97l-.9-6.24,4.1-.59,.14,.97-2.9,.42,.24,1.63,2.63-.38,.13,.93-2.63,.38,.25,1.73,2.89-.42,.14,.97-4.1,.59Z"/><path class="cls-6" d="M42.15,6.31l-.02-6.3h4.14V.98h-2.92v1.65h2.66v.94h-2.65v1.75h2.93v.97h-4.14Z"/></g></g></svg>